<svg width="391" height="112" viewBox="0 0 391 112" fill="none" xmlns="http://www.w3.org/2000/svg">
<mask id="mask0_240_4260" style="mask-type:luminance" maskUnits="userSpaceOnUse" x="0" y="0" width="391" height="112">
<path d="M390.337 0H0V112H390.337V0Z" fill="white"/>
</mask>
<g mask="url(#mask0_240_4260)">
<path d="M198.789 0.692993H212.773C215.356 0.692993 217.431 1.29688 218.987 2.49476C220.543 3.68274 221.326 5.49441 221.326 7.91987C221.326 9.39495 220.964 10.6424 220.259 11.6918C219.545 12.751 218.527 13.5529 217.216 14.1172V14.1964C218.987 14.5924 220.337 15.4438 221.257 16.7605C222.167 18.0771 222.618 19.7205 222.618 21.7104C222.618 22.8588 222.422 23.9279 222.021 24.9179C221.619 25.9178 220.983 26.7791 220.122 27.482C219.261 28.2047 218.155 28.7789 216.815 29.2046C215.474 29.6204 213.869 29.8381 212.019 29.8381H198.789V0.692993ZM203.829 12.8896H212.049C213.262 12.8896 214.27 12.5332 215.063 11.8601C215.875 11.1473 216.276 10.1573 216.276 8.86035C216.276 7.38528 215.914 6.3458 215.19 5.76171C214.466 5.15782 213.409 4.86082 212.049 4.86082H203.829V12.8896ZM203.829 25.6604H212.744C214.27 25.6604 215.464 25.2545 216.315 24.4526C217.157 23.6508 217.588 22.5123 217.588 21.0471C217.588 19.6115 217.167 18.5028 216.315 17.7307C215.464 16.9584 214.28 16.5724 212.744 16.5724H203.829V25.6604Z" fill="#005BAB"/>
<path d="M226.045 0.692993H231.085V17.6713C231.085 18.6414 231.134 19.6314 231.222 20.6412C231.32 21.6411 231.584 22.5519 232.034 23.3538C232.484 24.1655 233.149 24.8189 234.05 25.3337C234.95 25.8485 236.232 26.1059 237.866 26.1059C239.51 26.1059 240.782 25.8485 241.673 25.3337C242.573 24.8288 243.239 24.1655 243.679 23.3538C244.119 22.5618 244.384 21.651 244.481 20.6412C244.579 19.6314 244.628 18.6414 244.628 17.6713V0.692993H249.668V19.3344C249.668 21.2154 249.384 22.839 248.826 24.2248C248.259 25.6306 247.456 26.779 246.419 27.7097C245.392 28.6403 244.139 29.3531 242.691 29.8183C241.252 30.2737 239.628 30.5113 237.856 30.5113C236.075 30.5113 234.461 30.2737 233.012 29.8183C231.554 29.3531 230.312 28.6403 229.284 27.7097C228.247 26.779 227.444 25.6207 226.887 24.2248C226.329 22.839 226.035 21.2154 226.035 19.3344V0.692993H226.045Z" fill="#005BAB"/>
<path d="M257.973 20.1165C257.973 21.2252 258.169 22.1855 258.541 22.9676C258.913 23.7497 259.441 24.4031 260.107 24.8981C260.782 25.403 261.555 25.7693 262.426 26.0069C263.297 26.2346 264.256 26.3534 265.274 26.3534C266.37 26.3534 267.309 26.2247 268.092 25.9673C268.865 25.7 269.511 25.3733 269.99 24.9674C270.47 24.5516 270.822 24.0764 271.028 23.5517C271.243 23.027 271.351 22.4924 271.351 21.938C271.351 20.8292 271.106 20.0076 270.597 19.4631C270.108 18.9384 269.56 18.5721 268.963 18.3543C267.945 17.9682 266.761 17.6118 265.401 17.2752C264.041 16.9386 262.367 16.503 260.381 15.9486C259.148 15.612 258.13 15.1962 257.298 14.6617C256.486 14.137 255.83 13.543 255.341 12.8995C254.852 12.2461 254.509 11.5432 254.313 10.8106C254.108 10.078 254.01 9.33554 254.01 8.57326C254.01 7.10808 254.313 5.8409 254.92 4.75192C255.517 3.67284 256.32 2.78185 257.318 2.07896C258.306 1.37608 259.431 0.841486 260.704 0.504891C261.966 0.168297 263.238 0 264.53 0C266.037 0 267.446 0.197997 268.777 0.58409C270.108 0.980083 271.282 1.57407 272.28 2.36606C273.288 3.14815 274.091 4.12823 274.678 5.27661C275.265 6.42499 275.568 7.78127 275.568 9.29594H270.519C270.382 7.41498 269.756 6.0884 268.62 5.31621C267.495 4.54402 266.056 4.14803 264.315 4.14803C263.718 4.14803 263.111 4.20743 262.494 4.33613C261.878 4.45493 261.31 4.67272 260.801 4.94992C260.293 5.23701 259.872 5.62311 259.539 6.1181C259.197 6.59329 259.03 7.21698 259.03 7.94957C259.03 8.97915 259.343 9.79093 259.979 10.375C260.606 10.9492 261.438 11.4046 262.455 11.7016C262.563 11.7214 262.984 11.8501 263.727 12.0481C264.461 12.2461 265.293 12.4738 266.203 12.7114C267.113 12.9589 268.014 13.1965 268.885 13.4242C269.756 13.6519 270.382 13.8301 270.754 13.9291C271.703 14.236 272.525 14.632 273.22 15.1665C273.915 15.6714 274.502 16.2654 274.971 16.9386C275.441 17.6118 275.793 18.3147 276.018 19.0671C276.253 19.8393 276.361 20.6016 276.361 21.3638C276.361 22.9874 276.038 24.3932 275.373 25.5416C274.707 26.7097 273.846 27.6502 272.77 28.3828C271.693 29.1253 270.47 29.6401 269.1 29.9965C267.73 30.3331 266.33 30.5113 264.912 30.5113C263.268 30.5113 261.721 30.3034 260.273 29.8876C258.825 29.4817 257.562 28.858 256.476 28.0066C255.409 27.1651 254.548 26.0861 253.893 24.7793C253.257 23.4527 252.914 21.8984 252.895 20.1066H257.973V20.1165Z" fill="#005BAB"/>
<path d="M285.032 0.692993H279.992V29.8282H285.032V0.692993Z" fill="#005BAB"/>
<path d="M290.199 0.692993H295.513L308.655 22.1558H308.734V0.692993H313.538V29.8184H308.215L295.102 8.41486H294.994V29.8184H290.199V0.692993Z" fill="#005BAB"/>
<path d="M318.688 0.692993H339.424V5.10832H323.737V12.7213H338.249V16.8891H323.737V25.4129H339.707V29.8184H318.688V0.692993Z" fill="#005BAB"/>
<path d="M346.61 20.1165C346.61 21.2252 346.796 22.1855 347.158 22.9676C347.549 23.7497 348.068 24.4031 348.734 24.8981C349.419 25.403 350.182 25.7693 351.063 26.0069C351.943 26.2346 352.883 26.3534 353.9 26.3534C354.997 26.3534 355.936 26.2247 356.719 25.9673C357.492 25.7 358.128 25.3733 358.617 24.9674C359.097 24.5516 359.449 24.0764 359.664 23.5517C359.87 23.027 359.977 22.4924 359.977 21.938C359.977 20.8292 359.733 20.0076 359.234 19.4631C358.725 18.9384 358.187 18.5721 357.6 18.3543C356.572 17.9682 355.388 17.6118 354.028 17.2752C352.667 16.9386 350.994 16.503 349.008 15.9486C347.775 15.612 346.737 15.1962 345.915 14.6617C345.093 14.137 344.457 13.543 343.968 12.8995C343.479 12.2461 343.146 11.5432 342.931 10.8106C342.725 10.078 342.647 9.33554 342.647 8.57326C342.647 7.10808 342.931 5.8409 343.537 4.75192C344.144 3.67284 344.946 2.78185 345.935 2.07896C346.933 1.37608 348.068 0.841486 349.33 0.504891C350.612 0.178197 351.875 0 353.176 0C354.674 0 356.093 0.197997 357.423 0.58409C358.764 0.980083 359.929 1.57407 360.927 2.36606C361.944 3.14815 362.737 4.12823 363.334 5.27661C363.921 6.42499 364.215 7.78127 364.215 9.29594H359.175C359.028 7.41498 358.402 6.0884 357.277 5.31621C356.141 4.54402 354.703 4.14803 352.961 4.14803C352.364 4.14803 351.757 4.20743 351.151 4.33613C350.534 4.45493 349.967 4.67272 349.458 4.94992C348.949 5.23701 348.528 5.62311 348.186 6.1181C347.853 6.59329 347.686 7.21698 347.686 7.94957C347.686 8.97915 348 9.79093 348.626 10.375C349.262 10.9492 350.084 11.4046 351.112 11.7016C351.229 11.7214 351.64 11.8501 352.384 12.0481C353.118 12.2461 353.949 12.4738 354.859 12.7114C355.779 12.9589 356.67 13.1965 357.541 13.4242C358.422 13.6519 359.038 13.8301 359.42 13.9291C360.369 14.236 361.171 14.632 361.876 15.1665C362.581 15.6714 363.158 16.2654 363.628 16.9386C364.097 17.6118 364.45 18.3147 364.675 19.0671C364.9 19.8393 365.017 20.6016 365.017 21.3638C365.017 22.9874 364.684 24.3932 364.029 25.5416C363.373 26.7097 362.502 27.6502 361.436 28.3828C360.369 29.1253 359.126 29.6401 357.766 29.9965C356.396 30.3331 354.987 30.5113 353.568 30.5113C351.934 30.5113 350.387 30.3034 348.929 29.8876C347.471 29.4817 346.219 28.858 345.132 28.0066C344.066 27.1651 343.205 26.0861 342.559 24.7793C341.923 23.4527 341.59 21.8984 341.551 20.1066H346.61V20.1165Z" fill="#005BAB"/>
<path d="M371.919 20.1165C371.919 21.2252 372.105 22.1855 372.476 22.9676C372.858 23.7497 373.377 24.4031 374.062 24.8981C374.727 25.403 375.5 25.7693 376.381 26.0069C377.252 26.2346 378.201 26.3534 379.219 26.3534C380.315 26.3534 381.254 26.2247 382.037 25.9673C382.82 25.7 383.456 25.3733 383.936 24.9674C384.415 24.5516 384.777 24.0764 384.983 23.5517C385.188 23.027 385.296 22.4924 385.296 21.938C385.296 20.8292 385.051 20.0076 384.552 19.4631C384.053 18.9384 383.515 18.5721 382.918 18.3543C381.9 17.9682 380.716 17.6118 379.356 17.2752C377.996 16.9386 376.322 16.503 374.336 15.9486C373.103 15.612 372.075 15.1962 371.253 14.6617C370.431 14.137 369.785 13.543 369.296 12.8995C368.817 12.2461 368.464 11.5432 368.259 10.8106C368.053 10.078 367.965 9.33554 367.965 8.57326C367.965 7.10808 368.259 5.8409 368.856 4.75192C369.482 3.67284 370.275 2.78185 371.263 2.07896C372.251 1.37608 373.386 0.841486 374.649 0.504891C375.921 0.168297 377.183 0 378.475 0C379.992 0 381.411 0.197997 382.732 0.58409C384.053 0.980083 385.227 1.57407 386.235 2.36606C387.243 3.14815 388.046 4.12823 388.643 5.27661C389.23 6.42499 389.523 7.78127 389.523 9.29594H384.493C384.356 7.41498 383.72 6.0884 382.595 5.31621C381.47 4.54402 380.031 4.14803 378.279 4.14803C377.682 4.14803 377.076 4.20743 376.459 4.33613C375.843 4.45493 375.275 4.67272 374.766 4.94992C374.248 5.23701 373.827 5.62311 373.504 6.1181C373.161 6.59329 372.995 7.21698 372.995 7.94957C372.995 8.97915 373.308 9.79093 373.944 10.375C374.571 10.9492 375.402 11.4046 376.42 11.7016C376.528 11.7214 376.958 11.8501 377.702 12.0481C378.436 12.2461 379.268 12.4738 380.178 12.7114C381.088 12.9589 381.988 13.1965 382.859 13.4242C383.73 13.6519 384.356 13.8301 384.728 13.9291C385.677 14.236 386.499 14.632 387.184 15.1665C387.889 15.6714 388.476 16.2654 388.936 16.9386C389.406 17.6118 389.758 18.3147 389.993 19.0671C390.218 19.8393 390.336 20.6016 390.336 21.3638C390.336 22.9874 390.003 24.3932 389.347 25.5416C388.682 26.7097 387.811 27.6502 386.744 28.3828C385.677 29.1253 384.444 29.6401 383.074 29.9965C381.714 30.3331 380.305 30.5113 378.876 30.5113C377.242 30.5113 375.696 30.3034 374.248 29.8876C372.799 29.4817 371.527 28.858 370.461 28.0066C369.384 27.1651 368.523 26.0861 367.887 24.7793C367.241 23.4527 366.908 21.8984 366.879 20.1066H371.919V20.1165Z" fill="#005BAB"/>
<path d="M198.789 36.946H212.773C215.356 36.946 217.431 37.5499 218.987 38.7478C220.543 39.9457 221.326 41.7475 221.326 44.163C221.326 45.648 220.964 46.9053 220.259 47.9448C219.545 48.9941 218.527 49.8059 217.216 50.3702V50.4494C218.987 50.8256 220.337 51.677 221.257 52.9937C222.167 54.3203 222.618 55.9636 222.618 57.9436C222.618 59.092 222.422 60.1612 222.021 61.1511C221.619 62.1411 220.983 62.9925 220.122 63.7152C219.261 64.4379 218.155 65.0022 216.815 65.4279C215.474 65.8635 213.869 66.0714 212.019 66.0714H198.789V36.946ZM203.829 49.1426H212.049C213.262 49.1426 214.27 48.7961 215.063 48.1032C215.875 47.4201 216.276 46.4202 216.276 45.1035C216.276 43.6383 215.914 42.6087 215.19 41.995C214.466 41.401 213.409 41.0941 212.049 41.0941H203.829V49.1426ZM203.829 61.9134H212.744C214.27 61.9134 215.464 61.5174 216.315 60.7056C217.157 59.9038 217.588 58.7752 217.588 57.3001C217.588 55.8646 217.167 54.7459 216.315 53.9738C215.464 53.2016 214.28 52.8155 212.744 52.8155H203.829V61.9134Z" fill="#005BAB"/>
<path d="M237.204 36.946H242.567L253.654 66.0714H248.253L245.552 58.3594H234.063L231.353 66.0714H226.156L237.204 36.946ZM235.423 54.4886H244.211L239.896 41.9653H239.778L235.423 54.4886Z" fill="#005BAB"/>
<path d="M258.504 36.946H263.827L276.97 58.4089H277.058V36.946H281.853V66.0714H276.52L263.416 44.658H263.299V66.0714H258.504V36.946Z" fill="#005BAB"/>
<path d="M290.117 36.946H295.167V50.2118L307.986 36.946H314.2L302.702 48.5784L315.003 66.0714H308.71L299.267 52.1621L295.167 56.2705V66.0714H290.117V36.946Z" fill="#005BAB"/>
<path d="M325.098 36.946H320.059V66.0714H325.098V36.946Z" fill="#005BAB"/>
<path d="M333.387 36.946H338.71L351.853 58.4089H351.941V36.946H356.726V66.0714H351.412L338.299 44.658H338.192V66.0714H333.387V36.946Z" fill="#005BAB"/>
<path d="M390.135 66.0715H386.896L386.132 62.6362C384.792 64.1905 383.451 65.2696 382.11 65.8735C380.76 66.4675 379.223 66.7645 377.472 66.7645C375.319 66.7645 373.401 66.3685 371.688 65.5666C369.976 64.7746 368.537 63.6658 367.353 62.2798C366.169 60.8938 365.259 59.2802 364.623 57.4289C363.997 55.5875 363.684 53.6076 363.684 51.5088C363.684 49.4397 363.997 47.4895 364.623 45.6481C365.259 43.7869 366.159 42.1733 367.353 40.7873C368.528 39.4013 369.976 38.2925 371.688 37.4807C373.401 36.669 375.319 36.2631 377.472 36.2631C379.028 36.2631 380.525 36.471 381.924 36.8967C383.343 37.3124 384.596 37.9361 385.692 38.7677C386.798 39.5993 387.708 40.6388 388.432 41.8862C389.156 43.1434 389.616 44.5888 389.802 46.2124H384.88C384.743 45.262 384.449 44.4304 384.009 43.7077C383.568 42.9949 383.011 42.3911 382.335 41.8862C381.66 41.4011 380.907 41.0348 380.075 40.7873C379.243 40.5398 378.372 40.4111 377.452 40.4111C375.916 40.4111 374.595 40.718 373.489 41.3417C372.364 41.9753 371.463 42.8068 370.759 43.8562C370.054 44.9056 369.545 46.0936 369.203 47.44C368.87 48.7665 368.704 50.1228 368.704 51.5088C368.704 52.9047 368.87 54.261 369.203 55.5974C369.545 56.924 370.054 58.112 370.759 59.1614C371.454 60.2108 372.364 61.0522 373.489 61.6759C374.595 62.2897 375.916 62.6065 377.452 62.6065C378.744 62.6263 379.889 62.458 380.877 62.0917C381.866 61.7254 382.707 61.2007 383.402 60.5078C384.087 59.8148 384.606 58.9634 384.938 57.9536C385.291 56.9537 385.486 55.835 385.516 54.6173H377.853V50.7366H390.115V66.0715H390.135Z" fill="#005BAB"/>
<path d="M176.703 66.6754V0.0891113" stroke="#005BAB" stroke-width="2.8514" stroke-miterlimit="10"/>
<path d="M8.27881 0H66.2598V5.58351H22.0768C19.053 5.58351 16.5674 8.05847 16.5674 11.1472V55.6569C16.5674 58.7159 19.053 61.2008 22.0768 61.2008H66.2598V66.7645H8.27881C3.71861 66.7645 0 63.0322 0 58.4288V8.35546C0 3.74214 3.71861 0 8.27881 0Z" fill="#005BAB"/>
<path d="M142.687 31.6498C149.626 34.1247 154.616 40.8071 154.616 48.6973C154.616 58.6466 146.641 66.715 136.787 66.7645H136.669H127.001H118.086H115.953H99.4047H71.7695V61.2008C74.8325 61.2008 77.3083 58.706 77.3083 55.647V11.1472C77.3083 8.05847 74.8325 5.58351 71.7695 5.58351V0H99.3949H121.482H123.468H126.991H135.133C135.26 0 135.377 0 135.465 0.0296995C139.35 0.0692988 142.922 1.44538 145.721 3.73224C149.224 6.49429 151.818 10.7908 151.837 16.6119V16.6614V16.701C151.837 17.6712 151.759 18.5622 151.632 19.4037C150.761 24.7694 147.355 29.2738 142.687 31.6498ZM121.491 11.0482V11.1373V19.473V22.3142V26.3336V29.8084V36.9165V40.4309V41.7278V47.3014V48.7963V50.0734V55.6173C121.491 55.9044 121.501 56.1519 121.54 56.3994V56.4489V56.4984L121.56 56.538V56.5874V56.6171L121.57 56.6469L121.579 56.7062V56.7458V56.7854L121.599 56.8052L121.609 56.8448L121.628 56.8943V56.9438L121.658 56.9636V57.0527L121.687 57.0923C121.697 57.1715 121.716 57.2507 121.746 57.3398L121.795 57.4982L121.863 57.6467L121.893 57.7457C121.922 57.8051 121.932 57.8645 121.961 57.914L122 58.0229L122.059 58.1021L122.069 58.1813L122.108 58.2506L122.176 58.3397C122.333 58.6169 122.499 58.8644 122.695 59.1317C122.734 59.1713 122.783 59.201 122.832 59.2505C123.096 59.5574 123.37 59.8346 123.693 60.0623C123.811 60.1613 123.938 60.2405 124.065 60.3395L124.163 60.389C124.544 60.6068 124.926 60.785 125.327 60.9137C125.386 60.9434 125.445 60.9632 125.503 60.9731C125.65 61.0127 126.991 61.1216 126.991 61.1216C133.215 60.4385 138.039 55.1322 138.039 48.6973C138.039 42.2327 133.215 36.9363 126.991 36.2433V30.4222C133.225 29.749 138.068 24.4229 138.068 17.988C138.068 12.1669 134.135 7.29618 128.801 5.8805C128.39 5.732 127.95 5.62311 127.5 5.58351C127.324 5.56371 127.157 5.55381 126.981 5.55381C123.977 5.58351 121.521 8.01887 121.491 11.0482ZM99.3949 5.58351C96.3417 5.58351 93.8855 8.05847 93.8855 11.1472V55.647C93.8855 58.706 96.3515 61.2008 99.3949 61.2008C102.438 61.2008 104.914 58.706 104.914 55.647V11.1472C104.914 8.05847 102.448 5.58351 99.3949 5.58351Z" fill="#005BAB"/>
<path d="M32.7742 44.4701C36.1111 41.6486 40.2897 39.8172 44.8597 39.3816V35.4711H29.1045C29.4959 38.8272 30.7974 41.9357 32.7742 44.4701ZM49.0089 39.3816C53.5984 39.8172 57.777 41.6486 61.1139 44.4701C63.0809 41.9357 64.3922 38.8272 64.764 35.4711H49.0089V39.3816ZM58.1978 47.4697C55.6143 45.3809 52.4633 43.985 49.0089 43.5791V51.3505C52.4633 50.9347 55.6143 49.5586 58.1978 47.4697ZM44.8597 43.5791C41.4053 43.985 38.2542 45.3809 35.6806 47.4697C38.2542 49.5586 41.3955 50.9347 44.8597 51.3505V43.5791ZM61.1139 22.2648C57.777 25.0862 53.5788 26.9276 49.0089 27.3632V31.2934H64.764C64.3922 27.9176 63.0711 24.8189 61.1139 22.2648ZM44.8597 27.3533C40.2897 26.9177 36.1014 25.0763 32.7742 22.2549C30.8072 24.809 29.4959 27.9077 29.1143 31.2835H44.8597V27.3533ZM35.6904 19.2948C38.264 21.3738 41.4053 22.7697 44.8597 23.1558V15.424C41.4053 15.8002 38.264 17.206 35.6904 19.2948ZM49.0089 23.1558C52.4633 22.7697 55.6143 21.3738 58.1978 19.2948C55.6143 17.206 52.4633 15.8002 49.0089 15.424V23.1558ZM24.8477 33.3724C24.8477 21.0966 34.7216 11.1176 46.9049 11.1176C59.1274 11.1176 69.0209 21.0966 69.0209 33.3724C69.0209 45.6581 59.1274 55.647 46.9049 55.647C34.7313 55.647 24.8477 45.6581 24.8477 33.3724Z" fill="#EF7D00"/>
<path d="M16.3114 86.355H13.7014C13.3824 83.397 11.4104 82.121 8.5684 82.121C6.2484 82.121 3.9284 82.962 3.9284 85.659C3.9284 88.211 7.2344 88.588 10.5694 89.342C13.8754 90.096 17.1814 91.256 17.1814 95.316C17.1814 99.724 12.8604 101.493 9.0904 101.493C4.4504 101.493 0.535402 99.231 0.535402 94.185H3.1454C3.1454 97.665 6.0454 99.173 9.1774 99.173C11.6714 99.173 14.4264 98.39 14.4264 95.403C14.4264 92.561 11.1204 92.068 7.8144 91.343C4.5084 90.618 1.1734 89.661 1.1734 85.862C1.1734 81.657 4.9144 79.801 8.6844 79.801C12.9184 79.801 16.1374 81.802 16.3114 86.355ZM30.4761 96.244H32.9121C32.2451 99.55 29.8671 101.348 26.5031 101.348C21.7181 101.348 19.4561 98.042 19.3111 93.46C19.3111 88.965 22.2691 85.659 26.3581 85.659C31.6651 85.659 33.2891 90.618 33.1441 94.243H21.9211C21.8341 96.853 23.3131 99.173 26.5901 99.173C28.6201 99.173 30.0411 98.187 30.4761 96.244ZM21.9211 92.068H30.5341C30.4181 89.719 28.6491 87.834 26.2131 87.834C23.6321 87.834 22.0951 89.777 21.9211 92.068ZM35.6993 101V86.007H38.0193V88.385H38.0773C39.1213 86.529 40.8033 85.659 42.9493 85.659C46.8933 85.659 48.1113 87.921 48.1113 91.14V101H45.6463V90.85C45.6463 89.023 44.4863 87.834 42.6013 87.834C39.6143 87.834 38.1643 89.835 38.1643 92.532V101H35.6993ZM65.2115 80.294V101H62.7465V98.97H62.6885C61.8765 100.623 59.9625 101.348 57.9035 101.348C53.2925 101.348 51.0015 97.694 51.0015 93.46C51.0015 89.226 53.2635 85.659 57.8455 85.659C59.3825 85.659 61.5865 86.239 62.6885 88.008H62.7465V80.294H65.2115ZM53.6115 93.634C53.6115 96.447 55.0615 99.173 58.2515 99.173C61.5575 99.173 62.8335 96.331 62.8335 93.518C62.8335 90.56 61.4995 87.834 58.1065 87.834C54.7425 87.834 53.6115 90.705 53.6115 93.634ZM80.4972 81.512V86.007H83.4842V88.182H80.4972V97.491C80.4972 98.622 80.8162 98.825 82.3532 98.825H83.4842V101H81.5992C79.0472 101 78.0322 100.478 78.0322 97.723V88.182H75.4802V86.007H78.0322V81.512H80.4972ZM86.2227 101V80.294H88.6877V88.211H88.7457C89.5577 86.413 91.6747 85.659 93.4727 85.659C97.4167 85.659 98.6347 87.921 98.6347 91.14V101H96.1697V90.85C96.1697 89.023 95.0097 87.834 93.1247 87.834C90.1377 87.834 88.6877 89.835 88.6877 92.532V101H86.2227ZM112.69 96.244H115.126C114.459 99.55 112.081 101.348 108.717 101.348C103.932 101.348 101.67 98.042 101.525 93.46C101.525 88.965 104.483 85.659 108.572 85.659C113.879 85.659 115.503 90.618 115.358 94.243H104.135C104.048 96.853 105.527 99.173 108.804 99.173C110.834 99.173 112.255 98.187 112.69 96.244ZM104.135 92.068H112.748C112.632 89.719 110.863 87.834 108.427 87.834C105.846 87.834 104.309 89.777 104.135 92.068ZM145.617 86.007L140.832 101H138.222L135.177 89.081H135.119L132.103 101H129.435L124.621 86.007H127.347L130.74 98.274H130.798L133.814 86.007H136.511L139.643 98.274H139.701L143.065 86.007H145.617ZM147.149 93.518C147.149 89.11 149.672 85.659 154.428 85.659C159.184 85.659 161.707 89.11 161.707 93.518C161.707 97.897 159.184 101.348 154.428 101.348C149.672 101.348 147.149 97.897 147.149 93.518ZM149.759 93.518C149.759 97.143 151.847 99.173 154.428 99.173C157.009 99.173 159.097 97.143 159.097 93.518C159.097 89.864 157.009 87.834 154.428 87.834C151.847 87.834 149.759 89.864 149.759 93.518ZM164.526 101V86.007H166.846V89.168H166.904C168.093 86.761 169.746 85.572 172.414 85.659V88.269C168.441 88.269 166.991 90.531 166.991 94.33V101H164.526ZM187.159 80.294V101H184.694V98.97H184.636C183.824 100.623 181.91 101.348 179.851 101.348C175.24 101.348 172.949 97.694 172.949 93.46C172.949 89.226 175.211 85.659 179.793 85.659C181.33 85.659 183.534 86.239 184.636 88.008H184.694V80.294H187.159ZM175.559 93.634C175.559 96.447 177.009 99.173 180.199 99.173C183.505 99.173 184.781 96.331 184.781 93.518C184.781 90.56 183.447 87.834 180.054 87.834C176.69 87.834 175.559 90.705 175.559 93.634ZM200.328 87.776V80.294H202.3V87.776H200.328ZM204.388 87.776V80.294H206.36V87.776H204.388ZM211.776 101V80.294H225.377V82.614H214.531V89.197H224.043V91.517H214.531V101H211.776ZM228.429 101V80.294H242.726V82.614H231.184V89.197H241.943V91.517H231.184V98.68H242.813V101H228.429ZM263.47 86.529H260.715C260.135 83.6 257.786 82.121 254.915 82.121C249.985 82.121 247.897 86.181 247.897 90.502C247.897 95.229 249.985 99.173 254.944 99.173C258.569 99.173 260.657 96.621 260.918 93.199H263.673C263.151 98.361 259.932 101.493 254.712 101.493C248.274 101.493 245.142 96.737 245.142 90.705C245.142 84.702 248.564 79.801 254.944 79.801C259.265 79.801 262.832 82.121 263.47 86.529ZM267.985 87.776V80.294H269.957V87.776H267.985ZM272.045 87.776V80.294H274.017V87.776H272.045ZM286.287 93.518C286.287 89.11 288.81 85.659 293.566 85.659C298.322 85.659 300.845 89.11 300.845 93.518C300.845 97.897 298.322 101.348 293.566 101.348C288.81 101.348 286.287 97.897 286.287 93.518ZM288.897 93.518C288.897 97.143 290.985 99.173 293.566 99.173C296.147 99.173 298.235 97.143 298.235 93.518C298.235 89.864 296.147 87.834 293.566 87.834C290.985 87.834 288.897 89.864 288.897 93.518ZM303.751 101V86.007H306.071V88.385H306.129C307.173 86.529 308.855 85.659 311.001 85.659C314.945 85.659 316.163 87.921 316.163 91.14V101H313.698V90.85C313.698 89.023 312.538 87.834 310.653 87.834C307.666 87.834 306.216 89.835 306.216 92.532V101H303.751ZM338.232 80.439V94.011H341.016V96.186H338.232V101H335.912V96.186H326.893V93.808L336.26 80.439H338.232ZM329.01 94.011H335.912V83.948H335.854L329.01 94.011ZM354.346 80.439V94.011H357.13V96.186H354.346V101H352.026V96.186H343.007V93.808L352.374 80.439H354.346ZM345.124 94.011H352.026V83.948H351.968L345.124 94.011ZM364.631 91.343V89.255C365.008 89.284 365.356 89.284 365.704 89.284C367.792 89.284 369.619 88.153 369.619 85.92C369.619 83.774 368.053 82.614 365.965 82.614C363.268 82.614 362.108 84.673 362.079 87.08H359.614C359.759 83.165 361.847 80.439 365.965 80.439C369.532 80.439 372.229 82.15 372.229 85.949C372.229 87.747 370.953 89.313 369.387 90.038V90.096C371.881 90.647 373.099 92.619 373.099 95.084C373.099 99.202 369.88 101.348 366.023 101.348C361.847 101.348 359.092 98.883 359.179 94.649H361.644C361.731 97.317 363.21 99.173 366.023 99.173C368.43 99.173 370.489 97.694 370.489 95.2C370.489 92.619 368.546 91.256 366.11 91.256C365.617 91.256 365.095 91.285 364.631 91.343ZM388.053 80.787V82.962H379.759L378.657 88.878L378.715 88.936C379.614 87.921 381.151 87.457 382.543 87.457C386.197 87.457 389.184 89.806 389.184 94.504C389.184 97.984 386.777 101.348 381.992 101.348C378.425 101.348 375.525 99.173 375.438 95.461H377.903C378.048 97.578 379.759 99.173 382.224 99.173C384.573 99.173 386.574 97.578 386.574 94.301C386.574 91.575 384.689 89.632 381.934 89.632C380.368 89.632 379.063 90.415 378.106 91.575L375.989 91.459L377.903 80.787H388.053Z" fill="#005BAB"/>
</g>
</svg>
