<svg width="128" height="60" viewBox="0 0 128 60" fill="none" xmlns="http://www.w3.org/2000/svg">
<g clip-path="url(#clip0_56_1020)">
<path d="M0.971451 43.3591C0.971451 42.9814 0.916977 42.7047 0.812569 42.5246C0.703621 42.3445 0.494804 42.2523 0.172501 42.2523H0V41.9668H4.69383C5.34298 41.9668 5.66528 42.2611 5.66528 42.8496V43.7456H5.37022C5.37022 43.2976 5.25219 42.9682 5.0116 42.7574C4.771 42.5466 4.41692 42.4412 3.94482 42.4412H2.26521V45.3005H4.81186V45.7748H2.26067V49.2534H0.971451V43.3591Z" fill="white"/>
<path d="M8.13931 48.9722C7.58549 48.634 7.15424 48.1684 6.85009 47.5799C6.54594 46.9913 6.3916 46.3369 6.3916 45.6122C6.3916 44.8919 6.5414 44.233 6.85009 43.6445C7.15424 43.0559 7.58549 42.5904 8.13931 42.2522C8.69312 41.914 9.33319 41.7427 10.0595 41.7427C10.7904 41.7427 11.435 41.914 11.9888 42.2522C12.5426 42.5904 12.9739 43.0559 13.278 43.6445C13.5822 44.233 13.7365 44.8875 13.7365 45.6122C13.7365 46.3325 13.5822 46.9913 13.278 47.5799C12.9739 48.1684 12.5426 48.634 11.9888 48.9722C11.435 49.3104 10.7904 49.4817 10.0595 49.4817C9.33773 49.4817 8.69766 49.3104 8.13931 48.9722ZM11.73 48.1113C12.1295 47.514 12.3293 46.6839 12.3293 45.6166C12.3293 44.5493 12.1295 43.7148 11.73 43.1218C11.3306 42.5245 10.7722 42.2258 10.0595 42.2258C9.34227 42.2258 8.78845 42.5245 8.39352 43.1218C7.99858 43.7192 7.79884 44.5493 7.79884 45.6166C7.79884 46.6839 7.99858 47.5184 8.39352 48.1113C8.78845 48.7087 9.34681 49.0073 10.0595 49.0073C10.7722 49.0073 11.3306 48.7087 11.73 48.1113Z" fill="white"/>
<path d="M16.4057 48.9722C15.8519 48.634 15.4207 48.1684 15.1165 47.5799C14.8124 46.9913 14.658 46.3369 14.658 45.6122C14.658 44.8919 14.8078 44.233 15.1165 43.6445C15.4207 43.0559 15.8519 42.5904 16.4057 42.2522C16.9595 41.914 17.5996 41.7427 18.3259 41.7427C19.0568 41.7427 19.7014 41.914 20.2552 42.2522C20.809 42.5904 21.2403 43.0559 21.5444 43.6445C21.8486 44.233 22.0029 44.8875 22.0029 45.6122C22.0029 46.3325 21.8486 46.9913 21.5444 47.5799C21.2403 48.1684 20.809 48.634 20.2552 48.9722C19.7014 49.3104 19.0568 49.4817 18.3259 49.4817C17.6041 49.4817 16.9641 49.3104 16.4057 48.9722ZM19.9965 48.1113C20.3959 47.514 20.5957 46.6839 20.5957 45.6166C20.5957 44.5493 20.3959 43.7148 19.9965 43.1218C19.597 42.5245 19.0386 42.2258 18.3259 42.2258C17.6087 42.2258 17.0549 42.5245 16.6599 43.1218C16.265 43.7192 16.0653 44.5493 16.0653 45.6166C16.0653 46.6839 16.265 47.5184 16.6599 48.1113C17.0549 48.7087 17.6132 49.0073 18.3259 49.0073C19.0386 49.0073 19.597 48.7087 19.9965 48.1113Z" fill="white"/>
<path d="M23.5191 43.3591C23.5191 42.9814 23.4646 42.7047 23.3602 42.5246C23.2513 42.3445 23.0425 42.2523 22.7202 42.2523H22.5477V41.9668H25.6073C27.1235 41.9668 28.272 42.283 29.0573 42.9155C29.8426 43.548 30.233 44.4308 30.233 45.5684C30.233 46.2975 30.0696 46.9387 29.7382 47.4965C29.4068 48.0543 28.9166 48.4848 28.2674 48.7966C27.6183 49.1041 26.8284 49.2622 25.9114 49.2622H23.5237V43.3591H23.5191ZM27.3323 48.4496C27.7681 48.1861 28.104 47.8128 28.3491 47.3209C28.5943 46.8333 28.7168 46.2623 28.7168 45.6123C28.7168 44.971 28.5943 44.4088 28.3491 43.9213C28.104 43.4338 27.7681 43.0561 27.3323 42.7881C26.8965 42.5202 26.4017 42.3841 25.8479 42.3841C25.5574 42.3841 25.2169 42.4236 24.822 42.507V48.7395C25.0489 48.7834 25.235 48.8098 25.3758 48.823C25.5165 48.8361 25.6845 48.8405 25.8706 48.8405C26.4108 48.8405 26.901 48.7088 27.3323 48.4496Z" fill="white"/>
<path d="M34.6771 43.3591C34.6771 42.9814 34.6227 42.7047 34.5183 42.5246C34.4093 42.3445 34.196 42.2523 33.8782 42.2523H33.7057V41.9668H38.6719C39.3165 41.9668 39.6433 42.2611 39.6433 42.8496V43.7456H39.3483C39.3483 42.876 38.8716 42.4412 37.9229 42.4412H35.9709V45.2477H38.9851V45.7221H35.9709V48.7834H37.9456C38.4177 48.7834 38.799 48.6912 39.085 48.5067C39.3755 48.3223 39.6161 48.0016 39.8022 47.5448L40.0746 47.6327L39.7114 48.5726C39.6297 48.801 39.5162 48.9723 39.38 49.0865C39.2439 49.2007 39.0396 49.2578 38.7763 49.2578H34.6771V43.3591Z" fill="white"/>
<path d="M43.4656 45.7572L41.8541 43.403C41.3457 42.6388 40.7964 42.2303 40.2108 42.1864V41.9668H41.5136C41.8768 41.9668 42.2036 42.081 42.4851 42.3094C42.7665 42.5378 43.0253 42.8277 43.2614 43.1834L44.3236 44.7426L46.5616 41.9712H47.2243L44.6323 45.1863L46.4345 47.826C46.6569 48.151 46.9066 48.4277 47.1835 48.6605C47.4604 48.8932 47.7418 49.0206 48.0233 49.0426V49.2622H46.7885C46.1394 49.2622 45.5538 48.8581 45.0318 48.0456L43.7879 46.214L41.323 49.2622H40.6511L43.4656 45.7572Z" fill="white"/>
<path d="M48.9584 43.3591C48.9584 42.9814 48.9039 42.7047 48.7995 42.5246C48.6906 42.3445 48.4772 42.2523 48.1594 42.2523H47.9869V41.9668H51.0602C51.8228 41.9668 52.5083 42.1161 53.1256 42.4192C53.743 42.7222 54.0517 43.3108 54.0517 44.1848C54.0517 44.7602 53.8928 45.2038 53.5705 45.5157C53.2527 45.8275 52.8941 46.0383 52.4992 46.1394C52.1043 46.2404 51.7366 46.2931 51.4052 46.2931H50.2521V49.2534H48.9629V43.3591H48.9584ZM51.0012 45.8802C51.437 45.8802 51.8137 45.7441 52.1451 45.4674C52.472 45.1906 52.6354 44.747 52.6354 44.1365C52.6354 43.526 52.472 43.0824 52.1496 42.8057C51.8273 42.529 51.4551 42.3928 51.0375 42.3928C50.8377 42.3928 50.579 42.4236 50.2476 42.4807V45.8846H51.0012V45.8802Z" fill="white"/>
<path d="M56.503 48.9722C55.9492 48.634 55.5179 48.1684 55.2138 47.5799C54.9097 46.9913 54.7553 46.3369 54.7553 45.6122C54.7553 44.8919 54.9051 44.233 55.2138 43.6445C55.5179 43.0559 55.9492 42.5904 56.503 42.2522C57.0568 41.914 57.6969 41.7427 58.4232 41.7427C59.1541 41.7427 59.7987 41.914 60.3525 42.2522C60.9063 42.5904 61.3376 43.0559 61.6417 43.6445C61.9459 44.233 62.1002 44.8875 62.1002 45.6122C62.1002 46.3325 61.9459 46.9913 61.6417 47.5799C61.3376 48.1684 60.9063 48.634 60.3525 48.9722C59.7987 49.3104 59.1541 49.4817 58.4232 49.4817C57.7014 49.4817 57.0614 49.3104 56.503 48.9722ZM60.0983 48.1113C60.4978 47.514 60.6975 46.6839 60.6975 45.6166C60.6975 44.5493 60.4978 43.7148 60.0983 43.1218C59.6988 42.5245 59.1405 42.2258 58.4278 42.2258C57.7105 42.2258 57.1567 42.5245 56.7618 43.1218C56.3668 43.7192 56.1671 44.5493 56.1671 45.6166C56.1671 46.6839 56.3668 47.5184 56.7618 48.1113C57.1567 48.7087 57.7151 49.0073 58.4278 49.0073C59.1405 49.0073 59.6988 48.7087 60.0983 48.1113Z" fill="white"/>
<path d="M67.6929 49.0118C67.366 48.7703 67.021 48.3574 66.6533 47.7689L65.5094 45.911H64.9147V49.2578H63.6119V43.3591C63.6119 42.9814 63.5574 42.7047 63.453 42.5246C63.3441 42.3445 63.1307 42.2523 62.8129 42.2523H62.6404V41.9668H65.7228C66.4763 41.9668 67.1618 42.103 67.7837 42.3797C68.4056 42.6564 68.7143 43.179 68.7143 43.9521C68.7143 44.5055 68.5418 44.9227 68.2013 45.2126C67.8609 45.4981 67.4114 45.7045 66.8667 45.8319L68.0651 47.7645C68.333 48.1993 68.5826 48.5067 68.8187 48.6868C69.0547 48.8669 69.2953 48.9723 69.5359 49.0031V49.2578C69.4678 49.2885 69.3589 49.3149 69.2182 49.3369C69.0729 49.3588 68.9276 49.3676 68.7824 49.3676C68.3874 49.3676 68.0243 49.249 67.6929 49.0118ZM65.6637 45.4937C65.9225 45.4937 66.1767 45.441 66.4309 45.34C66.6806 45.239 66.8894 45.0677 67.0574 44.8393C67.2253 44.6065 67.307 44.3122 67.307 43.9477C67.307 43.5875 67.2253 43.2888 67.0574 43.0604C66.8894 42.8277 66.6806 42.6608 66.4355 42.551C66.1903 42.4455 65.9361 42.3884 65.6774 42.3884C65.4958 42.3884 65.2416 42.4192 64.9238 42.4763V45.4937H65.6637Z" fill="white"/>
<path d="M72.1688 42.4412H71.27C70.8297 42.4412 70.4938 42.5466 70.2577 42.7486C70.0262 42.955 69.9082 43.2844 69.9082 43.7412H69.6131V42.8452C69.6131 42.2567 69.9354 41.9624 70.5845 41.9624H75.9275V42.4368H73.4626V49.2534H72.1734V42.4412H72.1688Z" fill="white"/>
<path d="M81.0299 48.9898C80.4761 48.6603 80.0493 48.2123 79.7588 47.6414C79.4637 47.0704 79.3185 46.4335 79.3185 45.7264C79.3185 44.9973 79.4819 44.3297 79.8042 43.7192C80.1265 43.113 80.5714 42.6299 81.1343 42.2785C81.6972 41.9271 82.3191 41.7471 82.9955 41.7471C83.6355 41.7471 84.1848 41.8305 84.6388 41.9974C85.0972 42.1643 85.4377 42.3795 85.6647 42.6431C85.7918 42.8056 85.8735 43.0076 85.9053 43.258C85.937 43.5039 85.9507 43.8553 85.9507 44.3121H85.6556C85.3651 42.9198 84.5934 42.2258 83.3359 42.2258C82.537 42.2258 81.9014 42.4981 81.4293 43.0428C80.9572 43.5874 80.7212 44.4834 80.7212 45.7264C80.7212 46.3149 80.812 46.8552 80.9936 47.3515C81.1751 47.8434 81.4657 48.2431 81.8561 48.5505C82.2465 48.858 82.7413 49.0073 83.3359 49.0073C83.8761 49.0073 84.3618 48.8712 84.7976 48.6032C85.2334 48.3353 85.592 47.9444 85.8826 47.4393L86.214 47.6809C85.8553 48.3134 85.4195 48.7745 84.9066 49.0556C84.3936 49.3411 83.7536 49.4817 82.9955 49.4817C82.2419 49.4817 81.5837 49.3148 81.0299 48.9898Z" fill="white"/>
<path d="M88.7607 48.9722C88.2068 48.634 87.7756 48.1684 87.4714 47.5799C87.1673 46.9913 87.0129 46.3369 87.0129 45.6122C87.0129 44.8919 87.1627 44.233 87.4714 43.6445C87.7756 43.0559 88.2068 42.5904 88.7607 42.2522C89.3145 41.914 89.9545 41.7427 90.6809 41.7427C91.4117 41.7427 92.0563 41.914 92.6101 42.2522C93.164 42.5904 93.5952 43.0559 93.8994 43.6445C94.2035 44.233 94.3579 44.8875 94.3579 45.6122C94.3579 46.3325 94.2035 46.9913 93.8994 47.5799C93.5952 48.1684 93.164 48.634 92.6101 48.9722C92.0563 49.3104 91.4117 49.4817 90.6809 49.4817C89.9545 49.4817 89.3145 49.3104 88.7607 48.9722ZM92.3514 48.1113C92.7509 47.514 92.9506 46.6839 92.9506 45.6166C92.9506 44.5493 92.7509 43.7148 92.3514 43.1218C91.9519 42.5245 91.3936 42.2258 90.6809 42.2258C89.9636 42.2258 89.4098 42.5245 89.0149 43.1218C88.6199 43.7192 88.4202 44.5493 88.4202 45.6166C88.4202 46.6839 88.6199 47.5184 89.0149 48.1113C89.4098 48.7087 89.9682 49.0073 90.6809 49.0073C91.3936 49.0073 91.9519 48.7087 92.3514 48.1113Z" fill="white"/>
<path d="M96.5686 48.5638C96.0874 48.028 95.8513 47.2023 95.8513 46.091V43.3635C95.8513 43.0034 95.8014 42.731 95.697 42.5466C95.5926 42.3621 95.3974 42.2655 95.1068 42.2611H94.957V41.9756H96.1101C96.3824 41.9756 96.5913 42.0151 96.7365 42.0986C96.8818 42.182 96.9816 42.3182 97.0452 42.5114C97.1042 42.7047 97.136 42.9902 97.136 43.3679L97.1496 46.4292C97.1632 48.0807 97.7942 48.902 99.0426 48.902C99.8506 48.902 100.432 48.678 100.786 48.2344C101.14 47.7908 101.317 47.0749 101.317 46.0954V41.9756H101.843V46.0954C101.843 46.8333 101.748 47.4394 101.562 47.9182C101.376 48.3969 101.067 48.7615 100.631 49.0074C100.196 49.2534 99.6055 49.3764 98.861 49.3764C97.8124 49.3676 97.0497 49.0997 96.5686 48.5638Z" fill="white"/>
<path d="M104.358 43.6578V49.2578H103.832V43.2932C103.832 42.9638 103.755 42.7047 103.596 42.5246C103.441 42.3445 103.174 42.2523 102.801 42.2523H102.72V41.9668H103.5C103.895 41.9668 104.222 42.0239 104.481 42.1337C104.74 42.2435 104.962 42.4104 105.144 42.63L109.107 47.2023V41.9668H109.633V49.3237H109.22L104.358 43.6578Z" fill="white"/>
<path d="M112.693 48.9898C112.139 48.6603 111.712 48.2123 111.422 47.6414C111.127 47.0704 110.981 46.4335 110.981 45.7264C110.981 44.9973 111.145 44.3297 111.467 43.7192C111.789 43.113 112.234 42.6299 112.797 42.2785C113.36 41.9271 113.982 41.7471 114.658 41.7471C115.299 41.7471 115.848 41.8305 116.302 41.9974C116.76 42.1643 117.101 42.3795 117.328 42.6431C117.455 42.8056 117.536 43.0076 117.568 43.258C117.6 43.5039 117.614 43.8553 117.614 44.3121H117.319C117.028 42.9198 116.256 42.2258 114.999 42.2258C114.2 42.2258 113.564 42.4981 113.092 43.0428C112.62 43.5874 112.384 44.4834 112.384 45.7264C112.384 46.3149 112.475 46.8552 112.657 47.3515C112.838 47.8434 113.129 48.2431 113.519 48.5505C113.909 48.858 114.404 49.0073 114.999 49.0073C115.539 49.0073 116.025 48.8712 116.461 48.6032C116.896 48.3353 117.255 47.9444 117.546 47.4393L117.877 47.6809C117.518 48.3134 117.083 48.7745 116.57 49.0556C116.057 49.3411 115.417 49.4817 114.658 49.4817C113.9 49.4817 113.247 49.3148 112.693 48.9898Z" fill="white"/>
<path d="M119.552 49.1436C119.407 49.0645 119.307 48.9284 119.243 48.7307C119.184 48.5331 119.153 48.2432 119.153 47.8699V41.9668H120.455V47.8655C120.455 48.2432 120.51 48.5199 120.614 48.7C120.719 48.8801 120.932 48.9723 121.254 48.9723H121.413V49.2578H120.178C119.906 49.2578 119.697 49.2227 119.552 49.1436Z" fill="white"/>
<path d="M122.73 43.3591C122.73 42.9814 122.675 42.7047 122.571 42.5246C122.462 42.3445 122.253 42.2523 121.931 42.2523H121.758V41.9668H122.993C123.265 41.9668 123.474 42.0063 123.619 42.0898C123.765 42.1732 123.865 42.3094 123.928 42.5026C123.987 42.6959 124.019 42.9814 124.019 43.3591V48.7834H128.005V49.2578H122.73V43.3591Z" fill="white"/>
<path d="M51.2191 55.4287C51.2191 55.1564 51.1782 54.9499 51.092 54.8182C51.0103 54.6864 50.8423 54.6205 50.5926 54.6205H50.4156V54.458H54.2151C54.719 54.458 54.9732 54.6732 54.9732 55.1037V55.7098H54.7962C54.7962 55.0905 54.424 54.783 53.6795 54.783H52.018V56.8825H54.4285V57.2031H52.018V59.4607H53.5796C53.9882 59.4607 54.3105 59.3948 54.542 59.2586C54.7735 59.1225 54.9596 58.8941 55.0958 58.5735L55.2728 58.613L54.9596 59.3816C54.8507 59.6495 54.6282 59.7857 54.2923 59.7857H51.2145V55.4287H51.2191Z" fill="white"/>
<path d="M57.4019 59.5616C56.9389 59.3025 56.5802 58.9511 56.3215 58.5075C56.0627 58.0639 55.9311 57.5764 55.9311 57.0449C55.9311 56.5354 56.0446 56.0698 56.2716 55.6526C56.4985 55.2353 56.8208 54.9059 57.2385 54.6644C57.6561 54.4228 58.1464 54.2998 58.6956 54.2998C59.2086 54.2998 59.6489 54.3613 60.0212 54.4799C60.3934 54.6029 60.6658 54.7566 60.8383 54.9455C60.9336 55.0553 60.9926 55.1958 61.0199 55.3715C61.0471 55.5472 61.0607 55.7712 61.0607 56.0347H60.8837C60.7702 55.5604 60.5568 55.209 60.2391 54.9718C59.9258 54.739 59.4991 54.6204 58.9635 54.6204C58.4823 54.6204 58.0783 54.7346 57.7605 54.963C57.4382 55.1914 57.2021 55.4901 57.0523 55.8546C56.9025 56.2192 56.8254 56.6145 56.8254 57.0405C56.8254 57.9497 57.0206 58.6085 57.4155 59.0126C57.8059 59.4167 58.3234 59.6231 58.968 59.6231C59.2722 59.6231 59.5309 59.6011 59.7443 59.5484C59.9576 59.5001 60.1619 59.4299 60.3526 59.3376V57.9321C60.3526 57.7477 60.3843 57.5895 60.4524 57.4578C60.516 57.3216 60.6612 57.2118 60.8746 57.124C61.0925 57.0361 61.4103 56.9922 61.8233 56.9922V57.1547C61.5555 57.1547 61.3785 57.2162 61.2877 57.3392C61.1969 57.4622 61.1515 57.6554 61.1515 57.919V59.4342C60.8292 59.6099 60.4933 59.7417 60.1437 59.8208C59.7942 59.8998 59.3993 59.9437 58.968 59.9437C58.3824 59.9481 57.8604 59.8208 57.4019 59.5616Z" fill="white"/>
<path d="M64.4471 57.5852L62.931 55.5121C62.7766 55.3145 62.645 55.1564 62.5406 55.0422C62.4316 54.928 62.3045 54.8357 62.1592 54.7567C62.014 54.6776 61.8415 54.6337 61.6372 54.6249V54.4624H62.4407C62.7403 54.4624 62.99 54.5415 63.1897 54.6996C63.394 54.8577 63.5892 55.0729 63.7798 55.3496L65.0736 57.1636L66.9393 54.4624H67.3388L65.2506 57.5281V59.7857H64.4471V57.5852Z" fill="white"/>
<path d="M68.4056 55.4287C68.4056 55.1564 68.3647 54.9499 68.2785 54.8182C68.1968 54.6864 68.0288 54.6205 67.7792 54.6205H67.6021V54.458H69.9218C70.4938 54.458 71.0067 54.5678 71.4652 54.7874C71.9237 55.007 72.1507 55.4375 72.1507 56.0699C72.1507 56.4916 72.0327 56.8122 71.7921 57.0362C71.556 57.2602 71.2882 57.4139 70.9931 57.4886C70.698 57.5633 70.4302 57.6028 70.1851 57.6028H69.2046V59.7813H68.4011V55.4287H68.4056ZM69.8809 57.3261C70.0716 57.3261 70.2713 57.2822 70.4892 57.1943C70.7026 57.1065 70.8887 56.9659 71.0385 56.7727C71.1883 56.5794 71.2655 56.3335 71.2655 56.0392C71.2655 55.7449 71.1883 55.499 71.0385 55.3057C70.8887 55.1124 70.7026 54.9719 70.4892 54.884C70.2759 54.7962 70.0716 54.7523 69.8809 54.7523C69.6721 54.7523 69.4497 54.7786 69.2136 54.8313V57.3305H69.8809V57.3261Z" fill="white"/>
<path d="M74.6701 54.783H73.8666C73.1221 54.783 72.7499 55.0905 72.7499 55.7098H72.5728V55.1037C72.5728 54.6732 72.827 54.458 73.3309 54.458H77.48V54.7786H75.4735V59.7813H74.6701V54.783Z" fill="white"/>
<path d="M128 58.0596H81.8107V58.8238H128V58.0596Z" fill="white"/>
<path d="M46.1893 58.0596H0V58.8238H46.1893V58.0596Z" fill="white"/>
<path d="M47.1336 14.8542C47.1336 14.8542 46.6841 14.6653 46.5298 14.2173C46.3119 13.598 46.3074 12.4209 47.4513 10.932C48.7678 9.21903 50.2386 7.92773 50.2386 7.92773C50.2386 7.92773 50.352 9.95692 49.5213 12.8426C48.854 15.1616 47.5648 15.0035 47.1336 14.8542Z" fill="white"/>
<path d="M48.8994 15.9346C48.8994 15.9346 48.7223 15.5085 48.913 15.021C49.1536 14.4061 49.8799 13.4749 51.732 12.983C53.861 12.4208 55.8403 12.2803 55.8403 12.2803C55.8403 12.2803 54.6328 13.9449 52.1451 15.7193C50.1432 17.1512 49.0446 16.3299 48.8994 15.9346Z" fill="white"/>
<path d="M53.0848 11.3491C53.0848 11.3491 52.9032 11.0197 53.0303 10.6727C53.2028 10.1851 53.7884 9.46043 55.2411 9.07392C56.9116 8.63031 58.4686 8.5249 58.4686 8.5249C58.4686 8.5249 57.5244 9.83377 55.5679 11.2261C53.9972 12.3417 53.28 11.6433 53.0848 11.3491Z" fill="white"/>
<path d="M51.664 10.418C51.664 10.418 51.3144 10.2643 51.1919 9.91728C51.0239 9.42975 51.0239 8.50739 51.9318 7.34347C52.9759 6.00385 54.138 4.99805 54.138 4.99805C54.138 4.99805 54.2152 6.5924 53.5524 8.84998C53.0167 10.6683 52.0044 10.5366 51.664 10.418Z" fill="white"/>
<path d="M55.5407 7.74308C55.5407 7.74308 55.123 7.37414 55.1185 6.82512C55.114 6.06527 55.5588 4.76958 57.3837 3.54417C59.4855 2.12989 61.5964 1.23389 61.5964 1.23389C61.5964 1.23389 60.9472 3.50464 58.9362 6.38151C57.3202 8.69179 55.9628 8.05932 55.5407 7.74308Z" fill="white"/>
<path d="M41.9358 20.0366C41.9358 20.0366 41.5091 19.8477 41.2504 19.2987C40.9235 18.5916 40.919 17.3442 42.3172 15.4028C43.8424 13.2902 45.6038 11.7881 45.6038 11.7881C45.6038 11.7881 45.8035 13.7953 44.9092 17.23C44.2237 19.8433 42.5532 20.2342 41.9358 20.0366Z" fill="white"/>
<path d="M44.1783 21.4205C44.1783 21.4205 43.7925 20.9285 43.9286 20.34C44.1011 19.5801 45.0045 18.6226 47.3378 17.9155C49.83 17.1601 52.1769 16.9712 52.1769 16.9712C52.1769 16.9712 50.8014 18.974 47.9098 21.1438C45.5901 22.8874 44.5052 21.7499 44.1783 21.4205Z" fill="white"/>
<path d="M43.0299 20.3662C43.0299 20.3662 36.2025 28.4214 35.5715 37.97H36.8334C36.8334 37.97 36.8743 30.231 43.0299 20.3662Z" fill="white"/>
<path d="M33.4152 37.9129C33.6422 34.5046 34.6182 31.3071 35.7984 28.5708L26.5333 37.97H33.4107L33.4152 37.9129Z" fill="white"/>
<path d="M88.0298 37.7985C87.9208 37.86 87.8074 37.9127 87.6893 37.9654H101.126L89.8138 27.0201C89.8229 27.0816 89.841 27.1387 89.8456 27.2002C89.9001 27.6613 89.9273 28.2982 89.9273 29.1239H89.3008C89.0376 27.8809 88.5473 26.9366 87.8346 26.291C87.1219 25.6453 86.1958 25.3203 85.0519 25.3203C83.631 25.3203 82.5052 25.8078 81.6836 26.7785C80.8619 27.7492 80.4489 29.3875 80.4489 31.6977C80.4489 33.4107 80.8256 34.8338 81.5792 35.9669C82.3327 37.1001 83.4903 37.6667 85.0519 37.6667C86.0279 37.6667 86.9222 37.4163 87.7393 36.9156C88.5564 36.4149 89.2146 35.7034 89.7139 34.7723L90.4448 35.3169C89.7866 36.4545 88.974 37.2802 88.0298 37.7985Z" fill="white"/>
<path d="M62.0049 24.8153C63.1897 24.8153 63.7844 25.3555 63.7844 26.436V28.1577H63.1579C63.1579 27.3056 62.94 26.6907 62.4997 26.3042C62.0594 25.9177 61.4102 25.7289 60.5432 25.7289H57.6334V30.8897H62.2364V31.7988H57.6334V37.9698H66.1903V27.4462C66.1903 26.7566 66.095 26.2471 65.8998 25.9177C65.7046 25.5883 65.3142 25.4214 64.7286 25.4214H64.5198V24.8153H73.744C74.9288 24.8153 75.5235 25.3555 75.5235 26.436V28.1577H74.897C74.897 27.3232 74.6791 26.7083 74.2388 26.3174C73.7985 25.9265 73.1448 25.7289 72.2823 25.7289H68.914V30.7886H74.3523V31.6978H68.9095V37.2627H72.4866C73.281 37.2627 73.9437 37.0914 74.4749 36.7444C75.006 36.4018 75.4463 35.8045 75.7913 34.9524L76.3542 35.1544L75.7459 36.7532C75.5643 37.2407 75.3464 37.5965 75.0968 37.8249C75.0378 37.8776 74.9742 37.9215 74.9016 37.961H81.2932C81.0934 37.8732 80.8982 37.7766 80.7167 37.6712C79.6771 37.0694 78.8873 36.2525 78.3425 35.2115C77.7978 34.1706 77.5254 32.9979 77.5254 31.689C77.5254 30.3406 77.825 29.1064 78.4242 27.9952C79.0234 26.884 79.8496 26.0056 80.9028 25.3643C81.9559 24.723 83.1317 24.4024 84.43 24.4024C85.6556 24.4024 86.6816 24.5561 87.5032 24.8592C87.5531 24.8768 87.594 24.8987 87.6439 24.9207L62.8629 0.948242L54.5102 24.8153H62.0049Z" fill="white"/>
<path d="M54.9142 27.4463C54.9142 26.7567 54.8144 26.2472 54.6192 25.9178C54.5329 25.7728 54.4058 25.6674 54.2424 25.584L49.9072 37.9655H54.9097V27.4463H54.9142Z" fill="white"/>
</g>
<defs>
<clipPath id="clip0_56_1020">
<rect width="128" height="59" fill="white" transform="translate(0 0.948242)"/>
</clipPath>
</defs>
</svg>
