<svg width="146" height="41" viewBox="0 0 146 41" fill="none" xmlns="http://www.w3.org/2000/svg">
<g clip-path="url(#clip0_20_685)">
<path d="M85.066 12.9784H87.9317L90.6465 17.0386H95.0205L91.7023 12.2265C92.6073 11.7754 93.3614 11.1739 93.8139 10.422C94.4172 9.51976 94.568 8.6175 94.568 7.4145C94.568 6.21149 94.2664 5.30923 93.8139 4.40698C93.2106 3.50472 92.4565 2.90322 91.5515 2.45209C90.4957 2.00096 89.2891 1.85059 87.9317 1.85059H80.9937V17.0386H85.066V12.9784ZM85.066 5.15886H87.4792C88.6858 5.15886 89.2891 5.30923 89.7416 5.76036C90.1941 6.21149 90.4957 6.66262 90.4957 7.4145C90.4957 8.16638 90.3449 8.6175 89.8924 9.06863C89.4399 9.51976 88.8366 9.67014 87.63 9.67014H85.2168V5.15886H85.066Z" fill="white"/>
<path d="M115.533 1.85059L112.366 11.625L109.349 1.85059H105.428L102.11 11.4746L99.0932 1.85059H94.7192L99.5457 17.0386H104.221L107.238 7.71525L110.104 17.0386H114.779L119.756 1.85059H115.533Z" fill="white"/>
<path d="M135.744 8.91826L142.531 17.0386H146V1.85059H141.777V9.82051L135.14 1.85059H131.521V17.0386H135.744V8.91826Z" fill="white"/>
<path d="M120.51 17.0386L123.678 7.26412L126.694 17.0386H130.616L125.94 1.85059H121.264L116.287 17.0386H120.51Z" fill="white"/>
<path d="M63.7997 29.3696V28.6177C63.7997 26.2117 61.839 24.2568 59.2749 24.2568H49.7728C49.4712 24.2568 49.3204 24.1064 49.3204 23.8057V23.0538C49.3204 22.753 49.622 22.6027 49.7728 22.6027H63.0456L63.498 22.3019V19.144L63.0456 18.8433H49.7728C47.3596 18.8433 45.248 20.7981 45.248 23.3545V24.1064C45.248 26.5124 47.2088 28.4673 49.7728 28.4673H59.4257C59.7274 28.4673 59.8782 28.6177 59.8782 28.9185V29.6703C59.8782 29.9711 59.5766 30.2718 59.4257 30.2718H46.153L45.8514 30.5726V33.7305L46.153 34.0312H59.4257C61.839 33.7305 63.7997 31.7756 63.7997 29.3696Z" fill="white"/>
<path d="M49.6222 9.21901L53.5437 15.5348H55.5044L59.4259 8.91826V17.0386H63.3474V1.85059H59.8784L54.5994 10.5724L49.3205 1.85059H45.7007V17.0386H49.6222V9.21901Z" fill="white"/>
<path d="M146 33.7304V18.5425H141.626V24.2568H119.455V18.5425H115.081V33.7304H119.455V27.8658H141.626V33.7304H146Z" fill="white"/>
<path d="M73.3019 16.888C73.1511 16.888 73.1511 16.7377 73.3019 16.888L72.5478 15.5347C72.3969 15.3843 72.0953 15.3843 72.0953 15.5347L71.492 16.7377C71.492 16.7377 71.492 16.888 71.3412 16.888L69.9837 17.4895C69.8329 17.6399 69.8329 17.9407 69.9837 17.9407L71.1903 18.5422C71.1903 18.5422 71.3412 18.5422 71.3412 18.6926L71.9445 19.8956C72.0953 20.0459 72.3969 20.0459 72.3969 19.8956L73.0003 18.6926C73.0003 18.6926 73.0002 18.5422 73.1511 18.5422L74.3577 17.9407C74.5085 17.7903 74.5085 17.4895 74.3577 17.4895L73.3019 16.888Z" fill="white"/>
<path d="M112.969 21.8508V18.5425H100.601V33.7304H113.271V30.4222H104.824V27.7154H112.064V24.4071H104.824V21.8508H112.969Z" fill="white"/>
<path d="M79.4857 33.7302V8.76784C79.4857 7.1137 79.184 5.91069 78.5807 4.70769C77.9774 3.65505 77.0725 2.7528 76.0167 2.30167C74.9609 1.70017 73.6035 1.39941 72.246 1.39941C70.8886 1.39941 69.5311 1.70017 68.4754 2.30167C67.4196 2.90317 66.5146 3.65505 65.9113 4.70769C65.308 5.76032 65.0063 7.1137 65.0063 8.76784V33.7302H69.2295V8.46708C69.2295 7.26408 69.5311 6.5122 70.1344 5.91069C70.7378 5.30919 71.3411 5.15881 72.246 5.15881C73.151 5.15881 73.7543 5.45956 74.3576 5.91069C74.9609 6.5122 75.2625 7.26408 75.2625 8.46708V33.7302H79.4857Z" fill="white"/>
<path d="M95.1714 18.5425L90.0433 27.4147L84.6135 18.5425H81.1445V33.7304H85.066V25.9109L88.9875 32.2267H90.9483L94.8697 25.7605V33.7304H98.7912V18.5425H95.1714Z" fill="white"/>
<path d="M46.9071 37.7904C47.0579 37.64 47.2087 37.64 47.5104 37.64C47.6612 37.64 47.812 37.64 47.9629 37.7904C48.1137 37.9408 48.2645 37.9408 48.4153 38.0912L49.1695 37.4897C49.0187 37.1889 48.717 37.0385 48.4153 36.8882C48.1137 36.7378 47.812 36.7378 47.3596 36.7378C46.9071 36.7378 46.6054 36.8882 46.153 37.0385C45.8513 37.1889 45.5496 37.4897 45.3988 37.7904C45.248 38.0912 45.0972 38.3919 45.0972 38.8431C45.0972 39.2942 45.248 39.5949 45.3988 39.8957C45.5496 40.1964 45.8513 40.4972 46.153 40.6476C46.4546 40.7979 46.9071 40.9483 47.3596 40.9483C47.6612 40.9483 48.1137 40.9483 48.4153 40.7979C48.717 40.6476 48.8678 40.4972 49.1695 40.1964L48.4153 39.5949C48.2645 39.7453 48.1137 39.8957 47.9629 39.8957C47.812 40.0461 47.6612 40.0461 47.5104 40.0461C47.2087 40.0461 47.0579 40.0461 46.9071 39.8957C46.7563 39.7453 46.6054 39.5949 46.4546 39.4446C46.3038 39.2942 46.3038 38.9934 46.3038 38.8431C46.3038 38.5423 46.3038 38.3919 46.4546 38.2416C46.6054 37.9408 46.7563 37.7904 46.9071 37.7904Z" fill="white"/>
<path d="M64.2522 37.0385C63.9506 36.8882 63.4981 36.7378 63.0456 36.7378C62.5931 36.7378 62.2915 36.8882 61.839 37.0385C61.5373 37.1889 61.2357 37.4897 61.0849 37.7904C60.934 38.0912 60.7832 38.3919 60.7832 38.8431C60.7832 39.2942 60.934 39.5949 61.0849 39.8957C61.2357 40.1964 61.5373 40.4972 61.839 40.6476C62.1406 40.7979 62.5931 40.9483 63.0456 40.9483C63.4981 40.9483 63.7997 40.7979 64.2522 40.6476C64.5539 40.4972 64.8555 40.1964 65.0063 39.8957C65.1572 39.5949 65.308 39.2942 65.308 38.8431C65.308 38.3919 65.1572 38.0912 65.0063 37.7904C64.8555 37.4897 64.7047 37.1889 64.2522 37.0385ZM64.1014 39.4446C63.9506 39.5949 63.7997 39.7453 63.6489 39.8957C63.4981 40.0461 63.3473 40.0461 63.0456 40.0461C62.8948 40.0461 62.5931 40.0461 62.4423 39.8957C62.2915 39.7453 62.1406 39.5949 61.9898 39.4446C61.839 39.2942 61.839 38.9934 61.839 38.8431C61.839 38.5423 61.839 38.3919 61.9898 38.2416C62.1406 38.0912 62.2915 37.9408 62.4423 37.7904C62.5931 37.64 62.7439 37.64 63.0456 37.64C63.1964 37.64 63.4981 37.64 63.6489 37.7904C63.7997 37.9408 63.9506 38.0912 64.1014 38.2416C64.2522 38.3919 64.2522 38.6927 64.2522 38.8431C64.2522 38.9934 64.2522 39.1438 64.1014 39.4446Z" fill="white"/>
<path d="M81.2956 36.7378L79.9381 39.1438L78.4299 36.7378H77.5249V40.7979H78.5807V38.6927L79.6365 40.3468H80.0889L81.1447 38.5423V40.7979H82.2005V36.7378H81.2956Z" fill="white"/>
<path d="M97.4341 37.0386C97.1325 36.8882 96.8308 36.8882 96.5292 36.8882H94.7192V40.798H95.775V39.7453H96.5292C96.8308 39.7453 97.2833 39.7453 97.4341 39.595C97.7358 39.4446 97.8866 39.2942 98.0374 39.1438C98.1882 38.9934 98.1882 38.6927 98.1882 38.3919C98.1882 38.0912 98.1882 37.7904 98.0374 37.6401C97.8866 37.1889 97.7358 37.0386 97.4341 37.0386ZM96.9816 38.6927C96.8308 38.8431 96.68 38.8431 96.3783 38.8431H95.775V37.6401H96.3783C96.68 37.6401 96.8308 37.6401 96.9816 37.7904C97.1325 37.9408 97.1325 38.0912 97.1325 38.2416C97.1325 38.3919 97.1325 38.5423 96.9816 38.6927Z" fill="white"/>
<path d="M111.31 36.7378L109.5 40.6476H110.556L110.857 39.8957H112.667L112.969 40.6476H114.025L112.215 36.7378H111.31ZM111.31 39.1438L111.913 37.64L112.517 39.1438H111.31Z" fill="white"/>
<path d="M128.806 38.9934L126.996 36.7378H126.091V40.7979H127.147V38.5423L128.957 40.7979H129.861V36.7378H128.806V38.9934Z" fill="white"/>
<path d="M146 36.7378H144.944L143.888 38.5423L142.833 36.7378H141.777L143.285 39.4446V40.7979H144.341V39.4446L146 36.7378Z" fill="white"/>
<path d="M5.27893 1.5498L0 6.81296V35.5348L5.27893 40.7979H34.0868L39.3657 35.5348V6.81296L34.0868 1.5498H5.27893ZM36.1983 13.1288C36.1983 15.0836 35.4442 17.0385 34.2376 18.5423C35.4442 20.046 36.1983 22.0009 36.1983 23.9558V34.3318L32.7293 37.7904H6.63636L3.16736 34.3318V29.5197C3.16736 27.5648 3.92149 25.61 5.1281 24.1062C3.92149 22.6024 3.16736 20.7979 3.16736 18.6927V8.16635L6.63636 4.7077H14.3285C16.2893 4.7077 18.25 5.45958 19.7583 6.66259C21.2665 5.45958 23.2273 4.7077 25.188 4.7077H32.8802L36.1983 8.16635V13.1288Z" fill="white"/>
<path d="M25.037 8.01611C22.9254 8.01611 21.1155 9.3695 20.3614 11.174L20.2106 11.4748H19.0039V11.3244C18.2498 9.3695 16.4399 8.16649 14.3283 8.16649H7.99362L6.48535 9.67025V18.6928C6.48535 20.7981 7.69196 22.6026 9.65271 23.3545L9.80353 23.5048V24.7078L9.65271 24.8582C7.69196 25.6101 6.48535 27.4146 6.48535 29.5199V33.1289L7.99362 34.6327H31.3717L32.88 33.1289V24.1063C32.88 22.0011 31.5225 20.1966 29.7126 19.4447H29.5618V18.2417L29.7126 18.0913C31.6734 17.3394 32.88 15.5349 32.88 13.4296V9.51987L31.3717 8.01611H25.037ZM29.5618 13.1289C29.5618 14.0312 28.8077 14.783 27.9027 14.9334L26.5453 16.2868V20.6477L27.9027 22.0011C28.8077 22.0011 29.5618 22.9033 29.5618 23.8056V31.174H9.80353V29.3695C9.80353 28.4672 10.5577 27.7154 11.4626 27.565L12.8201 26.2116V21.8507L11.4626 20.4973C10.5577 20.4973 9.80353 19.5951 9.80353 18.6928V11.3244H14.3283C15.2333 11.3244 15.9874 12.0763 16.1382 12.9785L17.4957 14.3319H21.8696L23.2271 12.9785C23.2271 12.0763 24.132 11.3244 25.037 11.3244H29.5618V13.1289Z" fill="white"/>
<path d="M38.9132 2.75283C39.064 2.60245 39.064 2.45208 39.064 2.3017C39.064 2.15132 39.064 2.00095 38.9132 1.85057C38.7623 1.7002 38.6115 1.7002 38.4607 1.7002H37.7065V3.35433H38.159V2.9032H38.4607L38.7623 3.35433H39.2148L38.9132 2.75283C38.9132 2.9032 38.7623 2.9032 38.9132 2.75283ZM38.159 2.60245V2.15132H38.4607C38.6115 2.15132 38.6115 2.15132 38.7623 2.15132L38.9132 2.3017C38.9132 2.45208 38.9132 2.45208 38.7623 2.45208C38.6115 2.45208 38.6115 2.45208 38.4607 2.45208H38.159V2.60245Z" fill="white"/>
<path d="M38.31 0.948242C37.405 0.948242 36.6509 1.70012 36.6509 2.60238C36.6509 3.50463 37.405 4.25651 38.31 4.25651C39.2149 4.25651 39.9691 3.50463 39.9691 2.60238C39.9691 1.70012 39.3658 0.948242 38.31 0.948242ZM38.31 3.80538C37.5558 3.80538 37.1034 3.20388 37.1034 2.60238C37.1034 2.00087 37.7067 1.39937 38.31 1.39937C39.0641 1.39937 39.5166 2.00087 39.5166 2.60238C39.5166 3.20388 39.0641 3.80538 38.31 3.80538Z" fill="white"/>
</g>
<defs>
<clipPath id="clip0_20_685">
<rect width="146" height="40" fill="white" transform="translate(0 0.948242)"/>
</clipPath>
</defs>
</svg>
